<?xml version="1.0" encoding="utf-8"?>
<!-- Generator: Adobe Illustrator 16.0.0, SVG Export Plug-In . SVG Version: 6.00 Build 0)  -->
<!DOCTYPE svg PUBLIC "-//W3C//DTD SVG 1.1//EN" "http://www.w3.org/Graphics/SVG/1.1/DTD/svg11.dtd">
<svg version="1.1" id="图层_1" xmlns="http://www.w3.org/2000/svg" xmlns:xlink="http://www.w3.org/1999/xlink" x="0px" y="0px"
	 width="18.357px" height="18.357px" viewBox="0 0 18.357 18.357" enable-background="new 0 0 18.357 18.357" xml:space="preserve">
<g>
	<circle fill="#004E82" cx="9.178" cy="9.179" r="9.179"/>
	
		<radialGradient id="SVGID_1_" cx="293.7354" cy="-208.5674" r="8.8196" gradientTransform="matrix(1 0 0 -1 -284.5 -199.2354)" gradientUnits="userSpaceOnUse">
		<stop  offset="0.0242" style="stop-color:#65ACD0"/>
		<stop  offset="0.2606" style="stop-color:#42A2C9"/>
		<stop  offset="0.5394" style="stop-color:#169AC2"/>
		<stop  offset="0.8606" style="stop-color:#1493BD"/>
		<stop  offset="1" style="stop-color:#097EAF"/>
	</radialGradient>
	<circle fill="url(#SVGID_1_)" cx="9.235" cy="9.332" r="8.82"/>
	
		<linearGradient id="SVGID_2_" gradientUnits="userSpaceOnUse" x1="289.0518" y1="-201.2402" x2="293.231" y2="-207.9283" gradientTransform="matrix(1 0 0 -1 -284.5 -199.2354)">
		<stop  offset="0" style="stop-color:#FAFAFC"/>
		<stop  offset="0.5515" style="stop-color:#99C0D5"/>
		<stop  offset="0.6121" style="stop-color:#99C0D5"/>
		<stop  offset="1" style="stop-color:#D4E3ED"/>
		<stop  offset="1" style="stop-color:#FAFAFC"/>
	</linearGradient>
	<path fill="url(#SVGID_2_)" d="M2.982,7.923c0,0-2.057-2.234,1.234-5.673c0,0,2.625-2.269,5.504-0.05
		c0.933,0.744,1.013,1.346,1.105,1.928c0.043,0.423,0.08,0.866-0.012,1.417c-0.223,1.144-0.898,2.471-2.629,3.485
		C8.185,9.031,4.981,10.774,2.982,7.923z"/>
	<path fill="#006483" d="M7.757,10.323c0,0-1.878-0.488-1.292-3.171c0,0,0.372-1.31,2.029-1.83c0.068-0.008,0.073-0.024,0.214-0.027
		l6.041-0.01l-0.49,1.867L8.94,7.174c0,0-1.216-0.022-1.271,2.084C7.669,9.259,7.659,10.105,7.757,10.323z"/>
	<path fill="#31464E" d="M5.393,14.037H5.122l0.806-2.513l5.299,0.007c0,0,1.129-1.182,0.23-3.546c0,0,2.639-0.065,2.518,2.338
		c-0.117,2.37-5.275,3.714-5.275,3.714H5.393L5.393,14.037z"/>
	<path fill="#006483" d="M12.123,9.487c0.178,1.247-0.365,2.047-0.701,2.295c-0.086,0.063-0.221,0.072-0.221,0.072l-5.029,0.011
		l-0.695,2.172h6.394c0.115-0.024,0.15-0.038,0.15-0.038c1.545-0.563,1.936-3.101,1.936-3.101c0.359-2.377-2.172-2.594-2.172-2.594
		S12.094,9.208,12.123,9.487z"/>
	
		<linearGradient id="SVGID_3_" gradientUnits="userSpaceOnUse" x1="289.2529" y1="-201.1182" x2="293.5007" y2="-207.916" gradientTransform="matrix(1 0 0 -1 -284.5 -199.2354)">
		<stop  offset="0" style="stop-color:#FAFAFC"/>
		<stop  offset="0.5515" style="stop-color:#99C0D5"/>
		<stop  offset="0.6121" style="stop-color:#99C0D5"/>
		<stop  offset="1" style="stop-color:#D4E3ED"/>
		<stop  offset="1" style="stop-color:#FAFAFC"/>
	</linearGradient>
	<path opacity="0.15" fill="url(#SVGID_3_)" enable-background="new    " d="M0.932,8.796c0.001,0.159-0.785-5.342,5.173-7.497
		c0,0,4.413-0.948,8.094,2.666c0,0-1.709,0.467-3.854,3.608C10.443,7.458,7.072,11.652,0.932,8.796z"/>
	<path fill="#31464E" d="M8.783,4.839c0,0-2.515,0-2.575,3.054c0,0,0,0.497,0.259,1.084c0,0-0.182-0.673-0.038-1.512
		c0.167-0.726,0.637-1.617,1.951-2.087c0,0,0.305-0.079,0.673-0.065l5.696-0.011l0.076-0.462"/>
	<path fill="#31464E" d="M9.223,10.5c0,0-0.708-0.987,0.419-1.509c0,0,0.793-0.398,1.317,0.53"/>
	<path fill="#31464E" d="M9.168,10.437c0,0-0.653-1.022,0.419-1.509c0,0,0.78-0.416,1.336,0.529"/>
	<path fill="#31464E" d="M10.98,9.589"/>
	<ellipse fill="#0F5978" cx="10.076" cy="10.006" rx="1.016" ry="0.977"/>
	
		<linearGradient id="SVGID_4_" gradientUnits="userSpaceOnUse" x1="288.8184" y1="-215.4741" x2="298.4746" y2="-215.4741" gradientTransform="matrix(1 0 0 -1 -284.5 -199.2354)">
		<stop  offset="0" style="stop-color:#1493BD"/>
		<stop  offset="0.1636" style="stop-color:#1396C3"/>
		<stop  offset="0.497" style="stop-color:#FCFAF4"/>
		<stop  offset="0.7636" style="stop-color:#1396C3"/>
		<stop  offset="0.9212" style="stop-color:#1493BD"/>
	</linearGradient>
	<path opacity="0.6" fill="url(#SVGID_4_)" enable-background="new    " d="M4.318,15.109c0,0,0.268,0.573,0.973,1.08
		c1.589,1.142,4.773,2.36,8.684-1.08C13.975,15.109,8.812,17.04,4.318,15.109z"/>
</g>
</svg>
